<svg xmlns="http://www.w3.org/2000/svg" viewBox="0 0 218.98 156.18"><defs><style>.cls-1{fill:#4374ba;}.cls-2{fill:#fff;}</style></defs><title>Asset 5</title><g id="Layer_2" data-name="Layer 2"><g id="Layer_1-2" data-name="Layer 1"><path class="cls-1" d="M90.9,0H0V155.83a.33.33,0,0,0,.58.23L45.45,109.4C47,111,90.11,155.84,90.31,156.06a.33.33,0,0,0,.59-.23Z"/><path class="cls-2" d="M40.31,92.5H12.1l1.19-6.3h16.1V62.47H15.81A6.65,6.65,0,0,1,12.59,61l2.59-6.51a7.8,7.8,0,0,0,4.27,1.61H32.54a4.24,4.24,0,0,1,4,4.27V86.2h5.11Z"/><path class="cls-2" d="M51.3,76.33l-5.39-4.27c1.12-1.54,2.8-5.88,2.8-7.7,0-1.33-.7-1.89-2.1-1.89A6.48,6.48,0,0,1,43,61.35l2.59-6.79A7.92,7.92,0,0,0,49.9,56.1h2.24c2.45,0,3.92,2.31,3.92,4.83a24.89,24.89,0,0,1-1,7.42C54.45,70.45,52.77,74.58,51.3,76.33Z"/><path class="cls-2" d="M59.49,92.5l1.19-6.3h7.84V62.47H65.86A6.81,6.81,0,0,1,61.31,61l2.59-6.51a7.8,7.8,0,0,0,4.27,1.61h5.67a2.1,2.1,0,0,1,2,2.17V87.81c0,3.36-2.87,4.69-6.09,4.69Z"/><path class="cls-1" d="M109.83,76.33l-5.39-4.27c1.12-1.54,2.8-5.88,2.8-7.7,0-1.33-.7-1.89-2.1-1.89a6.48,6.48,0,0,1-3.57-1.12l2.59-6.79a7.92,7.92,0,0,0,4.27,1.54h2.24c2.45,0,3.92,2.31,3.92,4.83a24.89,24.89,0,0,1-1,7.42C113,70.45,111.3,74.58,109.83,76.33Z"/><path class="cls-1" d="M136.15,92.5l-.07-30H121.73A6.65,6.65,0,0,1,118.51,61l2.59-6.51a7.8,7.8,0,0,0,4.27,1.61h16.1a2.1,2.1,0,0,1,2,2.17V92.5Z"/><path class="cls-1" d="M149,92.5l1.18-6.3h15.2a5.16,5.16,0,0,0,5.32-5.53V62.47H158.13c-.7,3-1.33,4.76-1.33,7.28a3.65,3.65,0,0,0,2,3.43l-3.92,5.53-1.54-.77a6.53,6.53,0,0,1-3.43-5.46,5.66,5.66,0,0,1,.07-1.12c1.05-5.6,2.38-11.2,3.64-16.73a7.3,7.3,0,0,0,4,1.47h16.24a4.24,4.24,0,0,1,4,4.27V80.74c0,6.51-4.83,11.76-11.2,11.76Z"/><path class="cls-1" d="M200.62,92.5h-7.49l-4.13-27c-.57-3.64-3.16-2-6.31-4.48l2.6-6.51a8.23,8.23,0,0,0,4.26,1.61h23.53c3.64,0,5.74,3.22,5.88,6.86.28,9-2,17-6.3,22.61C209.93,89.14,205,92.5,200.62,92.5Zm-4.69-30,3.64,23.73c8.54-1.12,12-12.25,12-20.86,0-2.24-.77-2.87-3.43-2.87Z"/></g></g></svg>