<?xml version="1.0" encoding="UTF-8" standalone="no"?>
<!DOCTYPE svg PUBLIC "-//W3C//DTD SVG 1.1//EN"
"http://www.w3.org/Graphics/SVG/1.1/DTD/svg11.dtd">
<svg viewBox="0 0 441 661" version="1.1" xmlns="http://www.w3.org/2000/svg" xmlns:xlink="http://www.w3.org/1999/xlink">
<defs>
<clipPath id="c0_1"><path d="M0,661.5V0H441.5V661.5Z"/></clipPath>
<clipPath id="c1_1"><path d="M112.6,271.2V55.1H329V271.2Z"/></clipPath>
<style type="text/css"><![CDATA[
.g0_1{
fill: #007789;
}
.g1_1{
fill: #000;
}
.g2_1{
fill: #FFF;
}
]]></style>
</defs>
<g clip-path="url(#c0_1)">
<path d="M134.8,327.8l-.2,11.5c-.8,1.6,-2,3.1,-3.5,4.3l.2,-14.9c0,-3.3,-1,-4.9,-3,-4.9H112.6c1.2,-2.3,2.7,-4.3,4.6,-6.1c.1,.8,.2,1.2,.2,1.2c.1,.6,.4,.8,.8,.8h9.1c2.3,0,4,.3,5.2,.9c1.5,.8,2.3,2.2,2.3,4.3Zm-15.9,-1.6c-.1,1.3,-.1,2.6,-.1,3.8l-.2,8.9c-.8,1.8,-2,3.3,-3.4,4.6c0,-.5,0,-4.9,.1,-13.2c1,-1.3,2.2,-2.6,3.6,-4.1Zm36.6,-1.8c0,4.3,-1.7,8.5,-5.3,12.5c-2.2,2.5,-6,4.6,-11.5,6.4l2.3,-5.1c2.9,-.7,5.2,-1.5,6.7,-2.4c1.3,-.8,2.3,-2,3.1,-3.6c.7,-1.5,1.1,-3.2,1.1,-4.9c0,-2.4,-.8,-3.5,-2.3,-3.5h-8.4c-1.2,0,-1.9,-.1,-2.3,-.4c-.3,-.1,-.5,-.4,-.5,-.9c-.1,-1.4,-.1,-2.7,-.2,-4c-.2,-1.5,-.5,-2.8,-1.1,-3.9l3.2,-4.1c.6,.9,.9,2,.9,3.3v3.1c0,1.9,.3,2.8,.9,2.8h9.6c1.6,0,2.7,.4,3.2,1.3c.4,.7,.6,1.8,.6,3.4Zm13.7,2.8l-.1,12.7c-1,1.5,-2,2.7,-3.2,3.8l-.3,-15.2c-.1,-1.8,-.8,-3.1,-2.1,-4l-4.7,-3.1l2.9,-4l5.7,4.1c.8,.6,1.4,1.5,1.7,2.6c.1,.6,.2,1.6,.1,3.1ZM197,339l-2,4.4c-2.7,-3.7,-6.2,-7.9,-10.7,-12.5c-.9,-1,-2.3,-2.4,-4.1,-4.1c-1.5,1.9,-2.3,4.2,-2.3,7c.1,1.3,.2,2.6,.5,4.1h3l-1.9,4h-6l.8,-2.2c-.2,-1.1,-.2,-2,-.2,-2.6c0,-2.2,.4,-4.3,1.2,-6.2c.6,-1.2,1.7,-3,3.4,-5.5l-5.6,-4.5l2.5,-3.2c2.5,1.8,5.7,4.7,9.7,8.6c1.1,1,2.5,2.5,4.4,4.5c1,-1.6,1.5,-3.3,1.5,-5.1c0,-1.4,-.3,-2.6,-1,-3.6l3.5,-4.4c1.1,2.3,1.6,4.1,1.6,5.4c0,1.5,-.6,3.1,-1.6,4.9c-.9,1.4,-1.8,2.8,-2.7,4.2c2.1,2.1,4.1,4.4,6,6.8Zm15.3,-.3c0,2.1,-.6,3.7,-2,4.8l-1.5,-7.7c-1.3,2.6,-2.7,4.4,-4.2,5.5c-1.4,1,-3,1.6,-5.1,1.8l1.9,-5.2c.9,0,1.8,-.3,2.8,-.8c1.8,-1,3.2,-2.4,3.9,-4.3l-1.2,-5.2c-.3,-1.2,-1.1,-2.3,-2.4,-3.3c-.6,-.4,-1.6,-1,-3.2,-1.8l-1.5,-.8l2.9,-3.9l4.4,2.8c1.7,1.1,2.9,3.3,3.5,6.6l1.6,9.4c.1,.8,.1,1.5,.1,2.1Zm24.5,-10.9l-.2,11.5c-.8,1.6,-2,3.1,-3.5,4.3l.2,-14.9c0,-3.3,-.9,-4.9,-3,-4.9H214.6c1.2,-2.3,2.7,-4.3,4.6,-6.1c.1,.8,.2,1.2,.2,1.2c.1,.6,.4,.8,.8,.8h9.2c2.2,0,3.9,.3,5.1,.9c1.5,.8,2.3,2.2,2.3,4.3Zm-15.9,-1.6c-.1,1.3,-.1,2.6,-.1,3.8l-.2,8.9c-.8,1.8,-1.9,3.3,-3.4,4.6c0,-.5,0,-4.9,.1,-13.2c1,-1.3,2.2,-2.6,3.6,-4.1Zm51.5,1.6l-.2,11.5c-.8,1.6,-2,3.1,-3.5,4.3l.2,-14.9c0,-3.3,-.9,-4.9,-3,-4.9H250.2c1.2,-2.3,2.7,-4.3,4.6,-6.1c.1,.8,.2,1.2,.2,1.2c.1,.6,.4,.8,.8,.8H265c2.2,0,3.9,.3,5.1,.9c1.5,.8,2.3,2.2,2.3,4.3Zm-15.9,-1.6c-.1,1.3,-.1,2.6,-.1,3.8l-.2,8.9c-.8,1.8,-2,3.3,-3.4,4.6c0,-.5,0,-4.9,.1,-13.2c1,-1.3,2.2,-2.6,3.6,-4.1Zm32.1,-2.4c-.3,1.1,-.8,2.3,-1.6,3.6c-1.6,-1.1,-3,-2.1,-4.1,-2.8v.6c0,.9,.1,2,.5,3.4c1,3,2.2,6.2,3.7,9.6l-2.4,5.4c-.6,-1.5,-1.7,-4.7,-3.3,-9.6c-.7,-2.1,-1.1,-3.7,-1.1,-4.6c0,-1.8,.5,-3.6,1.5,-5.4c-1.5,-1,-3.3,-2,-5.2,-3c.6,-.7,1.7,-1.8,3,-3.2c3.1,1.5,6.1,3.5,9,6Zm14.2,3.4l-.2,12.7c-.9,1.5,-2,2.7,-3.2,3.8l-.3,-15.2c-.1,-1.8,-.7,-3.1,-2.1,-4l-4.7,-3.1l2.9,-4l5.7,4.1c.8,.6,1.4,1.5,1.7,2.6c.1,.6,.2,1.6,.2,3.1Zm25.9,8.6c0,.8,0,2.2,-.1,4.1c-.8,1.3,-1.7,2.4,-2.7,3.5l-.5,-7c-.2,-3.7,-.6,-6.5,-1.2,-8.3c-1,-2.9,-2.7,-4.3,-5.1,-4.3h-7.7c.1,1.6,.1,3.4,.1,5.5c0,1.7,0,4,-.2,6.8c-.2,2.6,-.3,4.1,-.3,4.6c-1.1,1.1,-2.2,2.1,-3.3,3.1c.2,-2.9,.3,-6.2,.3,-9.8c0,-4.8,-.5,-8.6,-1.5,-11.4c1.4,-1.6,2.9,-3.3,4.4,-5.4c.1,1,.2,1.9,.3,2.5h8c2.3,0,4.3,.7,6,2.1c1.6,1.4,2.6,3.3,2.9,5.6c.4,2.5,.6,5.3,.6,8.4Z" class="g0_1"/>
<path d="M213.3,376.9c-.4,.9,-.9,1.7,-1.6,2.4l-.6,-12.8c-.1,-1,-.2,-1.6,-.6,-2.1c-.2,-.3,-.7,-.7,-1.5,-1.2l-2.4,-1.6l1.6,-2.4l3.6,2.5c.6,.4,.9,1,1.1,1.8c.1,.3,.1,1,.1,1.9Zm8.3,-12.8c0,.8,-.3,1.7,-1,2.8c-.3,.4,-.9,1.3,-2,2.7l-1.7,.5c1.6,-2.4,2.4,-4,2.4,-5c0,-.9,-.9,-1.8,-2.7,-2.8l-1.7,-.9c0,-.1,.7,-.9,1.8,-2.4l1.7,1.1c2.2,1.5,3.2,2.8,3.2,4Zm13.9,7.2l-1.6,2.4H223l1.6,-2.4h7c0,-.2,0,-.4,0,-.7c0,-.3,0,-.6,0,-.8c0,-3.2,-.2,-5.3,-.6,-6.4c-.1,-.2,-.2,-.4,-.2,-.5c-.1,-.1,-.3,-.1,-.6,-.1h-6.8c.7,-1.3,1.5,-2.6,2.5,-3.6l.3,1.2h4.7c1.1,0,1.9,.4,2.3,1.2c.3,.5,.4,1.3,.4,2.5c0,2,0,4.4,-.2,7.2Z" class="g1_1"/>
<path d="M182.8,402.7c0,2.1,-.2,4.4,-.4,6.9c-.9,1.8,-2,3.4,-3.5,4.7H163.3c-1.9,-1.4,-2.8,-3.9,-2.7,-7.5l.1,-8.6c0,-1.4,-.7,-2.3,-2.1,-2.6c1.2,-2.3,2.9,-4.2,4.9,-5.8c0,.6,.1,1.3,.1,2.3h12.7c2.4,0,4.1,.8,5.1,2.4c.9,1.5,1.4,4.2,1.4,8.2Zm-3.4,2.9c0,-3.7,-.4,-6.3,-1.2,-7.8c-.6,-1.1,-1.5,-1.6,-2.8,-1.6H163.6v10.7c0,1.3,.2,2.2,.6,2.7c.3,.4,1,.7,1.9,.7h12c.7,0,1.1,-.5,1.3,-1.3c0,-.3,0,-1.4,0,-3.4Zm17.8,-7.2c0,1.3,-.6,2.8,-1.8,4.6c-.3,.6,-1.5,2.1,-3.3,4.5l-2.7,.8c2.6,-3.9,3.9,-6.7,3.9,-8.3c0,-1.4,-1.5,-3,-4.5,-4.6l-2.9,-1.5c.1,-.2,1.2,-1.5,3.1,-4.1l2.9,1.9c3.5,2.4,5.3,4.7,5.3,6.7Zm25.1,1.8l-.3,11.5c-.8,1.6,-1.9,3.1,-3.4,4.3l.2,-14.9c0,-3.3,-1,-4.9,-3,-4.9H200.1c1.2,-2.3,2.7,-4.3,4.6,-6.1c.1,.8,.1,1.2,.2,1.2c.1,.6,.4,.8,.8,.8h9.1c2.3,0,4,.3,5.1,.9c1.6,.8,2.4,2.2,2.4,4.3Zm-16,-1.6c0,1.3,-.1,2.6,-.1,3.8l-.1,8.9c-.8,1.8,-2,3.3,-3.5,4.6c0,-.5,.1,-4.9,.2,-13.2c1,-1.3,2.1,-2.6,3.5,-4.1Zm29.9,1l-.2,12.7c-.9,1.5,-2,2.7,-3.1,3.8l-.4,-15.2c0,-1.8,-.7,-3.1,-2.1,-4l-4.6,-3.1l2.8,-4l5.7,4.1c.9,.6,1.5,1.5,1.7,2.6c.2,.6,.2,1.6,.2,3.1ZM257,396.8c0,4.3,-1.8,8.5,-5.3,12.5c-2.2,2.5,-6.1,4.6,-11.6,6.4l2.3,-5.1c3,-.7,5.2,-1.5,6.7,-2.4c1.4,-.8,2.4,-2,3.1,-3.6c.8,-1.5,1.1,-3.2,1.1,-4.9c0,-2.4,-.7,-3.5,-2.2,-3.5h-8.5c-1.1,0,-1.9,-.1,-2.2,-.3c-.4,-.2,-.5,-.5,-.6,-1c0,-1.3,-.1,-2.7,-.1,-3.9c-.2,-1.6,-.6,-2.9,-1.1,-4l3.1,-4.1c.7,.9,1,2,1,3.3v3.1c0,1.9,.3,2.8,.8,2.8h9.6c1.7,0,2.8,.4,3.3,1.3c.4,.7,.6,1.8,.6,3.4Zm27.4,14.6l-2.1,4.4c-2.6,-3.7,-6.2,-7.9,-10.7,-12.5c-.9,-1,-2.3,-2.4,-4,-4.1c-1.6,1.9,-2.4,4.2,-2.3,7c0,1.3,.1,2.7,.4,4.1h3l-1.9,4h-6l.8,-2.2c-.1,-1.1,-.2,-2,-.2,-2.6c0,-2.2,.4,-4.3,1.2,-6.1c.6,-1.3,1.7,-3.1,3.4,-5.6l-5.5,-4.5l2.5,-3.2c2.5,1.8,5.7,4.7,9.6,8.6c1.1,1,2.6,2.5,4.4,4.5c1,-1.6,1.6,-3.3,1.6,-5.1c0,-1.4,-.4,-2.6,-1,-3.6l3.4,-4.4c1.1,2.3,1.6,4.1,1.6,5.4c0,1.5,-.5,3.1,-1.6,4.9c-.9,1.4,-1.8,2.8,-2.7,4.2c2.2,2.1,4.2,4.4,6.1,6.8Z" class="g0_1"/>
<path d="M207.3,449.2c-.4,.8,-1,1.7,-1.7,2.4L205,438.7c0,-.9,-.2,-1.6,-.6,-2c-.2,-.3,-.7,-.7,-1.4,-1.2l-2.5,-1.6l1.7,-2.5l3.5,2.6c.6,.4,1,1,1.1,1.8c.1,.3,.2,.9,.2,1.9Zm8.3,-12.8c0,.8,-.4,1.7,-1.1,2.8c-.2,.3,-.9,1.2,-2,2.7l-1.6,.5c1.6,-2.4,2.3,-4.1,2.3,-5c0,-.9,-.9,-1.8,-2.7,-2.8l-1.7,-.9c.1,-.1,.7,-.9,1.9,-2.4l1.7,1.1c2.1,1.4,3.2,2.8,3.2,4Zm13.9,7.1l-1.6,2.5h-11l1.7,-2.5h6.9c0,-.1,0,-.4,0,-.7c0,-.3,0,-.5,0,-.7c0,-3.2,-.2,-5.4,-.6,-6.4c-.1,-.3,-.1,-.4,-.2,-.5c-.1,-.1,-.3,-.1,-.6,-.1h-6.7c.6,-1.4,1.4,-2.6,2.5,-3.7l.3,1.2h4.6c1.2,0,1.9,.4,2.3,1.2c.3,.6,.4,1.4,.4,2.5c0,2.1,0,4.5,-.1,7.2Zm11.4,-8c0,2.6,-1,5.1,-3.2,7.5c-1.3,1.5,-3.6,2.7,-6.9,3.8l1.4,-3.1c1.8,-.4,3.1,-.9,4,-1.4c.8,-.5,1.4,-1.2,1.9,-2.2c.4,-.9,.6,-1.9,.6,-2.9c0,-1.4,-.4,-2.1,-1.3,-2.1h-5.1c-.7,0,-1.1,-.1,-1.4,-.2c-.2,-.1,-.3,-.3,-.3,-.6c0,-.8,-.1,-1.6,-.1,-2.4c-.1,-.9,-.3,-1.7,-.6,-2.3l1.9,-2.5c.3,.6,.5,1.2,.5,2v1.8c0,1.2,.2,1.7,.5,1.7h5.8c1,0,1.6,.3,2,.8c.2,.4,.3,1.1,.3,2.1Z" class="g1_1"/>
<path d="M184.2,469.1c0,4.3,-1.7,8.5,-5.3,12.5c-2.2,2.5,-6,4.6,-11.5,6.3l2.3,-5.1c2.9,-.6,5.1,-1.4,6.7,-2.3c1.3,-.9,2.3,-2.1,3.1,-3.6c.7,-1.6,1.1,-3.2,1.1,-4.9c0,-2.4,-.8,-3.6,-2.3,-3.6h-8.4c-1.2,0,-1.9,-.1,-2.3,-.3c-.3,-.1,-.5,-.5,-.5,-1c-.1,-1.3,-.2,-2.6,-.2,-3.9c-.2,-1.5,-.5,-2.8,-1.1,-3.9l3.2,-4.1c.6,.9,.9,2,.9,3.3v3c0,1.9,.3,2.9,.9,2.9h9.6c1.6,0,2.7,.4,3.2,1.3c.4,.6,.6,1.8,.6,3.4Zm27.4,14.6l-2.1,4.4c-2.6,-3.8,-6.1,-8,-10.6,-12.6c-1,-1,-2.3,-2.3,-4.1,-4.1c-1.5,1.9,-2.3,4.3,-2.3,7.1c0,1.3,.2,2.6,.5,4h3l-1.9,4.1h-6l.7,-2.2c-.1,-1.2,-.2,-2,-.2,-2.6c0,-2.3,.5,-4.3,1.3,-6.2c.5,-1.2,1.7,-3.1,3.4,-5.5l-5.6,-4.5l2.5,-3.3c2.5,1.9,5.7,4.8,9.7,8.6c1,1.1,2.5,2.6,4.3,4.5c1.1,-1.6,1.6,-3.3,1.6,-5.1c0,-1.4,-.3,-2.5,-1,-3.5l3.4,-4.5c1.1,2.4,1.7,4.2,1.6,5.5c0,1.4,-.5,3,-1.5,4.9c-.9,1.4,-1.8,2.8,-2.7,4.2c2.1,2.1,4.1,4.3,6,6.8Zm20.2,1.4c-.8,1.3,-1.9,2.5,-3,3.4l-.3,-12.1c-.1,-5.3,-1.4,-8,-4,-8h-11c.6,-2.2,2,-4.2,4.4,-6.1l.2,1.4c.1,.5,.4,.7,.8,.7h6.6c4.2,0,6.3,3.5,6.3,10.6Zm28.7,-14.4c0,3.4,-1.1,6.5,-3.2,9.4c-1.5,2.1,-3.4,3.9,-5.7,5.3c-2.3,1.3,-4.4,2,-6.4,2c-1.4,0,-2.4,-.6,-3.1,-1.9c-.4,-.6,-.8,-2,-1.4,-4l-2.5,-9.3c-.7,-2.9,-1.5,-4.8,-2.3,-5.8c.2,-.3,1.2,-1.6,3,-4c.5,.5,.9,1.5,1.4,2.8c.3,1.4,.7,2.7,1,4l1.9,7.2c2.6,-1.8,3.9,-3.5,3.9,-5.1c0,-1.2,-.3,-3,-.9,-5.2l3.5,-3.8c.7,2.6,1,4.7,1,6.1c0,2.3,-.7,4.4,-2.2,6.3c-.9,1.3,-2.5,2.7,-4.6,4.3c.5,1.8,.8,2.9,1,3.3c.4,.9,.8,1.3,1.4,1.3c2.3,0,4.9,-1.3,8,-3.9c1.7,-1.5,2.6,-3.1,2.6,-4.9c0,-2.9,-.5,-5.6,-1.4,-8c.9,-.9,2.1,-2.4,3.7,-4.4c.9,2.6,1.3,5.4,1.3,8.3Zm14.1,0c0,1.2,-.6,2.8,-1.8,4.6c-.4,.6,-1.5,2.1,-3.3,4.5l-2.7,.8c2.6,-4,3.9,-6.8,3.9,-8.4c0,-1.4,-1.5,-2.9,-4.5,-4.5l-2.9,-1.6c.1,-.1,1.1,-1.5,3.1,-4l2.8,1.9c3.6,2.4,5.4,4.6,5.4,6.7Z" class="g0_1"/>
</g>
<image clip-path="url(#c1_1)" preserveAspectRatio="none" x="112" y="55" width="218" height="217" xlink:href="img/1.png"/>
<path fill-rule="evenodd" d="M36.8,36.8h.7v.7h-.7v-.7Z" class="g2_1"/>
<path fill-rule="evenodd" d="M36.8,36.8h.7v.7h-.7v-.7Z" class="g2_1"/>
<path fill-rule="evenodd" d="M37.5,36.8H404.2v.7H37.5v-.7Z" class="g2_1"/>
<path fill-rule="evenodd" d="M404.2,36.8h.7v.7h-.7v-.7Z" class="g2_1"/>
<path fill-rule="evenodd" d="M404.2,36.8h.7v.7h-.7v-.7Z" class="g2_1"/>
<path fill-rule="evenodd" d="M36.8,37.5h.7V624.2h-.7V37.5Z" class="g2_1"/>
<path fill-rule="evenodd" d="M404.2,37.5h.7V624.2h-.7V37.5Z" class="g2_1"/>
<path fill-rule="evenodd" d="M36.8,624.2h.7v.8h-.7v-.8Z" class="g2_1"/>
<path fill-rule="evenodd" d="M36.8,624.2h.7v.8h-.7v-.8Z" class="g2_1"/>
<path fill-rule="evenodd" d="M37.5,624.2H404.2v.8H37.5v-.8Z" class="g2_1"/>
<path fill-rule="evenodd" d="M404.2,624.2h.7v.8h-.7v-.8Z" class="g2_1"/>
<path fill-rule="evenodd" d="M404.2,624.2h.7v.8h-.7v-.8Z" class="g2_1"/>
</svg>