<?xml version="1.0" encoding="UTF-8" standalone="no"?>
<!DOCTYPE svg PUBLIC "-//W3C//DTD SVG 1.1//EN"
"http://www.w3.org/Graphics/SVG/1.1/DTD/svg11.dtd">
<svg viewBox="0 0 441 661" version="1.1" xmlns="http://www.w3.org/2000/svg" xmlns:xlink="http://www.w3.org/1999/xlink">
<defs>
<style type="text/css"><![CDATA[
.g0_23{
fill: #FFF;
}
]]></style>
</defs>
<path fill-rule="evenodd" d="M36.8,36.8h.7v.7h-.7v-.7Z" class="g0_23"/>
<path fill-rule="evenodd" d="M36.8,36.8h.7v.7h-.7v-.7Z" class="g0_23"/>
<path fill-rule="evenodd" d="M37.5,36.8H404.2v.7H37.5v-.7Z" class="g0_23"/>
<path fill-rule="evenodd" d="M404.2,36.8h.7v.7h-.7v-.7Z" class="g0_23"/>
<path fill-rule="evenodd" d="M404.2,36.8h.7v.7h-.7v-.7Z" class="g0_23"/>
<path fill-rule="evenodd" d="M36.8,37.5h.7V624.2h-.7V37.5Z" class="g0_23"/>
<path fill-rule="evenodd" d="M404.2,37.5h.7V624.2h-.7V37.5Z" class="g0_23"/>
<path fill-rule="evenodd" d="M36.8,624.2h.7v.8h-.7v-.8Z" class="g0_23"/>
<path fill-rule="evenodd" d="M36.8,624.2h.7v.8h-.7v-.8Z" class="g0_23"/>
<path fill-rule="evenodd" d="M37.5,624.2H404.2v.8H37.5v-.8Z" class="g0_23"/>
<path fill-rule="evenodd" d="M404.2,624.2h.7v.8h-.7v-.8Z" class="g0_23"/>
<path fill-rule="evenodd" d="M404.2,624.2h.7v.8h-.7v-.8Z" class="g0_23"/>
</svg>