<?xml version="1.0" encoding="UTF-8" standalone="no"?>
<!DOCTYPE svg PUBLIC "-//W3C//DTD SVG 1.1//EN"
"http://www.w3.org/Graphics/SVG/1.1/DTD/svg11.dtd">
<svg viewBox="0 0 441 661" version="1.1" xmlns="http://www.w3.org/2000/svg" xmlns:xlink="http://www.w3.org/1999/xlink">
<defs>
<clipPath id="c0_24"><path d="M55.6,545.5V495.6H385.4v49.9Z"/></clipPath>
<style type="text/css"><![CDATA[
.g0_24{
fill: #000;
}
.g1_24{
fill: #007789;
}
.g2_24{
fill: #FFF;
}
]]></style>
</defs>
<g clip-path="url(#c0_24)">
<path d="M349.4,506c0,.6,0,1.2,-.1,1.9c-.2,.5,-.5,.9,-.9,1.3h-4.2c-.5,-.4,-.7,-1.1,-.7,-2v-2.4c0,-.3,-.2,-.6,-.6,-.7c.4,-.6,.8,-1.1,1.3,-1.5c.1,.1,.1,.3,.1,.6h3.4c.6,0,1.1,.2,1.4,.7c.2,.4,.3,1.1,.3,2.1Zm-.9,.8c0,-1,-.1,-1.7,-.3,-2.1c-.2,-.3,-.4,-.4,-.7,-.4h-3.2v2.9c0,.3,0,.6,.1,.7c.1,.1,.3,.2,.6,.2h3.2c.2,0,.3,-.1,.3,-.4c0,0,0,-.3,0,-.9Zm4.8,-1.9c0,.3,-.2,.8,-.5,1.2c-.1,.2,-.4,.6,-.9,1.2l-.7,.3c.7,-1.1,1.1,-1.9,1.1,-2.3c0,-.4,-.5,-.8,-1.2,-1.2l-.8,-.4c0,-.1,.3,-.4,.8,-1.1l.8,.5c.9,.7,1.4,1.3,1.4,1.8Zm7.2,.4c0,1,-.4,1.9,-1,2.7c-.8,.8,-1.7,1.3,-2.8,1.3c-.4,0,-.8,-.1,-1,-.3c-.1,-.1,-.3,-.4,-.4,-.8l-.4,-2c-.3,-1,-.6,-1.8,-.9,-2.2c.2,-.4,.5,-.8,.9,-1.3c.2,.2,.3,.6,.4,.9l.3,1.2l.5,2.5c.1,.4,.2,.7,.3,.8c.1,.1,.3,.1,.6,.1c.8,0,1.4,-.2,1.9,-.6c.4,-.4,.7,-.9,.7,-1.5c0,-.6,-.1,-1,-.3,-1.4c-.2,-.4,-.6,-.6,-1,-.6c-.5,0,-1,.1,-1.6,.5l.6,-1.3c.3,-.2,.7,-.3,1.1,-.3c1.4,0,2.1,.7,2.1,2.3Zm5.6,3.5c-.3,.3,-.6,.6,-.9,.9v-3.3c-.1,-1.4,-.4,-2.1,-1.1,-2.1h-2.9c.1,-.6,.5,-1.1,1.1,-1.7l.1,.4c0,.2,.1,.2,.2,.2h1.8c1.1,0,1.7,1,1.7,2.9Zm5.6,-2.7c0,.4,0,1.1,-.1,1.8c-.1,.2,-.3,.6,-.7,1.3h-4.3c.3,-.4,.5,-.8,.7,-1.1h3.5c0,-.4,.1,-.8,.1,-1.2c0,-.6,-.1,-1.2,-.3,-1.9c-.5,-.5,-1.2,-.9,-2.2,-1.2c-.3,.3,-.4,.6,-.4,.9c0,.3,.1,.5,.3,.7c.1,.1,.2,.2,.5,.3l-.6,.9c-.4,-.2,-.7,-.4,-.8,-.5c-.2,-.2,-.4,-.5,-.4,-.8c0,-.5,.2,-1,.6,-1.6c.4,-.5,.8,-.8,1.1,-1c.6,.1,1.1,.4,1.7,.8c.5,.3,.9,.6,1.1,.9c.1,.6,.2,1.1,.2,1.7Zm5.4,-1.6c0,1.1,-.5,2.3,-1.4,3.3c-.6,.7,-1.6,1.2,-3.1,1.7l.6,-1.3c.8,-.2,1.4,-.4,1.8,-.7c.4,-.2,.6,-.5,.8,-.9c.2,-.5,.3,-.9,.3,-1.4c0,-.6,-.2,-.9,-.6,-.9h-2.2c-.3,0,-.5,0,-.6,-.1c-.1,0,-.2,-.1,-.2,-.2c0,-.4,0,-.8,0,-1.1c-.1,-.4,-.2,-.8,-.3,-1.1l.8,-1.1c.2,.3,.3,.6,.3,.9v.8c0,.6,.1,.8,.2,.8h2.6c.4,0,.7,.1,.8,.4c.2,.1,.2,.4,.2,.9Z" class="g0_24"/>
<path d="M340.6,505.2l-.9,.9l-.9,-.9l.8,-.9Zm0,3.2l-.9,.9l-.9,-.9l.8,-.9Z" class="g0_24"/>
<path d="M125,510.7h-6.3V510H125Zm6,0h-6.2V510H131Zm6.3,0H131V510h6.3Zm6.2,0h-6.3V510h6.3Zm6.1,0h-6.3V510h6.3Zm6.2,0h-6.2V510h6.2Zm6.1,0h-6.3V510h6.3Zm6.2,0h-6.2V510h6.2Zm6.3,0h-6.3V510h6.3Zm6.1,0h-6.3V510h6.3Zm6.2,0h-6.3V510h6.3Zm6.2,0h-6.2V510h6.2Zm6.1,0h-6.3V510H199Zm6.1,0h-6.3V510h6.3Zm6.2,0h-6.2V510h6.2Zm6.1,0h-6.3V510h6.3Zm6.2,0h-6.2V510h6.2Zm6.3,0h-6.3V510h6.3Zm6.1,0h-6.3V510H236Zm6.2,0h-6.3V510h6.3Zm6.1,0H242V510h6.3Zm6.2,0h-6.3V510h6.3Zm6.2,0h-6.2V510h6.2Zm6.1,0h-6.3V510h6.3Zm6.2,0h-6.2V510H273Zm6.1,0h-6.2V510h6.2Zm6.3,0h-6.3V510h6.3Zm6.2,0h-6.3V510h6.3Zm6.1,0h-6.3V510h6.3Zm6.2,0h-6.3V510h6.3Zm6.1,0h-6.3V510H310Zm6.2,0H310V510h6.2Zm6.3,0h-6.3V510h6.3Zm6,0h-6.2V510h6.2Zm6.3,0h-6.3V510h6.3Z" class="g0_24"/>
<path d="M364.2,520.7c0,.4,-.1,.9,-.4,1.4l-.8,1.4l-.3,.1l.4,-1c.1,-.5,.2,-.9,.2,-1.2c0,-.3,-.1,-.6,-.3,-.9l.8,-1c.3,.4,.4,.8,.4,1.2Zm5.7,.5c0,1.2,-.4,2.3,-1.4,3.3c-.6,.7,-1.6,1.3,-3.1,1.7l.6,-1.3c.8,-.2,1.4,-.4,1.8,-.7c.4,-.2,.7,-.5,.9,-.9c.1,-.4,.2,-.9,.2,-1.3c0,-.7,-.2,-1,-.5,-1h-2.3c-.3,0,-.5,0,-.6,-.1c-.1,0,-.2,-.1,-.2,-.2c0,-.4,0,-.7,0,-1.1c-.1,-.4,-.2,-.7,-.3,-1l.8,-1.1c.2,.2,.3,.5,.3,.8v.9c0,.5,.1,.7,.2,.7h2.6c.4,0,.7,.2,.9,.4c.1,.2,.1,.5,.1,.9Zm7.3,.8c0,1,-.4,1.9,-1.1,2.7c-.7,.9,-1.6,1.3,-2.7,1.3c-.4,0,-.8,-.1,-1,-.2c-.1,-.2,-.3,-.5,-.4,-.9l-.5,-1.9c-.2,-1.1,-.5,-1.8,-.8,-2.3c.2,-.4,.5,-.8,.9,-1.3c.2,.3,.3,.6,.4,1l.3,1.1l.5,2.5c.1,.5,.2,.7,.3,.8c0,.1,.3,.1,.6,.1c.8,0,1.4,-.2,1.8,-.5c.5,-.4,.8,-1,.8,-1.6c0,-.6,-.1,-1,-.3,-1.4c-.3,-.4,-.6,-.6,-1,-.6c-.5,0,-1,.2,-1.6,.5l.5,-1.3c.4,-.2,.8,-.3,1.2,-.3c1.4,0,2.1,.8,2.1,2.3Z" class="g0_24"/>
<path d="M306.4,522.2c-.1,1.6,-.6,2.8,-1.7,3.7c-.2,.1,-.5,.1,-.8,.1c-.7,0,-1.2,-.3,-1.6,-.9c-.4,-.6,-.6,-1.4,-.6,-2.3c0,-1.7,.5,-3,1.6,-4c.3,-.1,.5,-.1,.8,-.1c.4,0,.8,.1,1.1,.4c.4,.3,.6,.6,.8,1c.2,.6,.4,1.3,.4,2.1Zm-1,.5c0,-.8,-.1,-1.5,-.4,-2c-.3,-.7,-.7,-1,-1.3,-1c-.2,0,-.4,.1,-.7,.2c-.3,.6,-.4,1.3,-.4,1.9c0,.9,.1,1.6,.4,2.2c.3,.7,.7,1.1,1.3,1.1c.3,0,.5,-.1,.7,-.2c.3,-.6,.5,-1.3,.4,-2.2Zm6.2,-3.9c-.1,.1,-.3,.5,-.6,1.1h-2.2v1.6c.2,-.1,.5,-.2,.7,-.2c.6,0,1,.2,1.4,.6c.4,.3,.6,.8,.6,1.3c0,.8,-.3,1.4,-.8,2c-.5,.5,-1.2,.8,-2,.8c-.5,0,-.9,-.1,-1.2,-.2l.6,-1.1c.3,.2,.7,.2,1,.2c.5,0,.9,-.1,1.2,-.4c.3,-.2,.4,-.6,.4,-1c0,-.3,-.2,-.6,-.5,-.9c-.3,-.2,-.7,-.3,-1.1,-.3c-.3,0,-.7,.1,-1.1,.2v-3.1c.2,-.4,.4,-.7,.8,-1c0,0,0,.1,0,.2c0,.1,0,.2,0,.2Zm5.2,6l-.4,1.1h-3.8c.2,-1.1,.9,-2.2,1.9,-3.4c.6,-.7,.8,-1.2,.8,-1.6c0,-.8,-.4,-1.2,-1.4,-1.2c-.3,0,-.6,.1,-.9,.2l.5,-1.1c.2,-.1,.5,-.1,.8,-.1c.7,0,1.2,.2,1.6,.5c.4,.3,.6,.8,.6,1.3c0,.4,-.2,.8,-.5,1.2c-.1,.2,-.5,.6,-1,1.1c-.7,.8,-1.1,1.4,-1.2,2Z" class="g0_24"/>
<path d="M321.5,521.9l-.5,.9h-2.9l.4,-.9Z" class="g0_24"/>
<path d="M326.5,518.8c0,.1,-.2,.5,-.5,1.1h-2.2v1.6c.2,-.1,.4,-.2,.7,-.2c.5,0,1,.2,1.3,.6c.4,.3,.6,.8,.6,1.3c0,.8,-.2,1.4,-.8,2c-.5,.5,-1.2,.8,-2,.8c-.4,0,-.8,-.1,-1.2,-.2l.6,-1.1c.4,.2,.7,.2,1.1,.2c.5,0,.9,-.1,1.2,-.4c.2,-.2,.4,-.6,.4,-1c0,-.3,-.2,-.6,-.5,-.9c-.3,-.2,-.7,-.3,-1.1,-.3c-.3,0,-.7,.1,-1.2,.2v-3.1c.2,-.4,.5,-.7,.8,-1c0,0,0,.1,0,.2c0,.1,0,.2,0,.2Zm5.4,6l-.4,1.1h-3.7c.2,-1.1,.8,-2.2,1.8,-3.4c.6,-.7,.9,-1.2,.9,-1.6c0,-.8,-.5,-1.2,-1.4,-1.2c-.3,0,-.7,.1,-1,.2l.5,-1.1c.2,-.1,.5,-.1,.8,-.1c.7,0,1.2,.2,1.6,.5c.4,.3,.6,.8,.6,1.3c0,.4,-.2,.8,-.5,1.2c-.1,.2,-.4,.6,-1,1.1c-.6,.8,-1,1.4,-1.1,2Zm5.7,-1.5c0,.6,-.2,1.2,-.7,1.8c-.5,.6,-1,.9,-1.7,.9c-.6,0,-1.1,-.2,-1.5,-.6c-.4,-.4,-.6,-.9,-.6,-1.5c0,-.4,.2,-1,.6,-1.7l1.6,-3.1l1.7,-.5l-2.5,3.5c.2,-.1,.5,-.2,.7,-.4c.3,-.1,.6,-.2,.9,-.2c.4,0,.8,.2,1.1,.6c.3,.4,.4,.8,.4,1.2Zm-1,.6c0,-.4,-.1,-.7,-.3,-1c-.2,-.3,-.6,-.4,-1,-.4c-.4,0,-.8,.1,-1.2,.4c0,.1,0,.3,0,.4c-.1,.4,.1,.8,.4,1.1c.4,.4,.8,.6,1.2,.6c.3,0,.5,-.1,.7,-.2c.1,-.2,.2,-.5,.2,-.9Zm6.6,-1.7c-.1,1.6,-.6,2.8,-1.6,3.7c-.3,.1,-.6,.1,-.9,.1c-.6,0,-1.2,-.3,-1.6,-.9c-.4,-.6,-.6,-1.4,-.6,-2.3c0,-1.7,.6,-3,1.7,-4c.2,-.1,.4,-.1,.7,-.1c.4,0,.8,.1,1.1,.4c.4,.3,.7,.6,.8,1c.3,.6,.4,1.3,.4,2.1Zm-.9,.5c-.1,-.8,-.2,-1.5,-.4,-2c-.4,-.7,-.8,-1,-1.4,-1c-.2,0,-.4,.1,-.7,.2c-.2,.6,-.4,1.3,-.4,1.9c0,.9,.2,1.6,.4,2.2c.3,.7,.8,1.1,1.4,1.1c.2,0,.4,-.1,.6,-.2c.3,-.6,.5,-1.3,.5,-2.2Zm6.1,.5c0,.8,-.3,1.4,-.9,2c-.6,.5,-1.2,.8,-2,.8c-.5,0,-.9,-.1,-1.3,-.3l.7,-1.1c.3,.2,.7,.3,1.1,.3c.4,.1,.8,0,1.1,-.3c.3,-.2,.4,-.5,.4,-.8c0,-.8,-.5,-1.2,-1.6,-1.2c-.2,0,-.4,0,-.6,0l.2,-.8c.8,-.2,1.2,-.7,1.2,-1.3c0,-.6,-.4,-.8,-1.2,-.9c-.3,0,-.6,.1,-.8,.1c.1,-.2,.2,-.5,.5,-.9c.2,-.1,.5,-.1,.7,-.1c.5,0,1,.1,1.3,.3c.3,.3,.5,.6,.5,1.1c0,.7,-.3,1.2,-1,1.6c.5,0,.9,.2,1.2,.4c.3,.3,.5,.7,.5,1.1Zm5.6,-1c0,1.6,-.5,2.8,-1.6,3.7c-.3,.1,-.5,.1,-.8,.1c-.7,0,-1.2,-.3,-1.6,-.9c-.4,-.6,-.6,-1.4,-.6,-2.3c0,-1.7,.5,-3,1.6,-4c.2,-.1,.5,-.1,.7,-.1c.4,0,.8,.1,1.2,.4c.4,.3,.6,.6,.8,1c.2,.6,.3,1.3,.3,2.1Zm-.9,.5c0,-.8,-.1,-1.5,-.4,-2c-.3,-.7,-.8,-1,-1.3,-1c-.2,0,-.5,.1,-.7,.2c-.3,.6,-.4,1.3,-.4,1.9c0,.9,.1,1.6,.4,2.2c.3,.7,.7,1.1,1.3,1.1c.2,0,.5,-.1,.6,-.2c.4,-.6,.5,-1.3,.5,-2.2Zm6.2,-1.9c0,.4,-.2,1,-.6,1.6l-1.6,3.2l-1.7,.5l2.6,-3.6c-.3,.2,-.6,.3,-.8,.5c-.3,.1,-.6,.2,-.9,.2c-.4,0,-.8,-.2,-1.1,-.6c-.3,-.4,-.4,-.8,-.4,-1.2c0,-.6,.2,-1.2,.7,-1.8c.5,-.6,1,-.9,1.7,-.9c.6,0,1.1,.2,1.5,.6c.4,.4,.6,.9,.6,1.5Zm-.9,.6c0,-.4,-.2,-.8,-.5,-1.1c-.4,-.4,-.8,-.6,-1.2,-.6c-.2,0,-.4,.1,-.6,.2c-.2,.2,-.3,.5,-.3,.9c0,.4,.1,.7,.3,.9c.3,.4,.6,.5,1,.5c.4,0,.8,-.1,1.2,-.4c0,-.1,.1,-.3,.1,-.4Z" class="g0_24"/>
<path d="M355,537.7c0,1.2,-.5,2.3,-1.4,3.4c-.6,.6,-1.7,1.2,-3.1,1.7l.6,-1.4c.8,-.2,1.4,-.4,1.8,-.6c.4,-.2,.6,-.6,.8,-1c.2,-.4,.3,-.8,.3,-1.3c0,-.6,-.2,-.9,-.6,-.9h-2.2c-.3,0,-.5,-.1,-.7,-.1c0,-.1,-.1,-.2,-.1,-.3c0,-.3,0,-.7,0,-1c-.1,-.5,-.2,-.8,-.3,-1.1l.8,-1.1c.2,.2,.3,.5,.3,.9v.8c0,.5,.1,.8,.2,.8H354c.4,0,.7,.1,.8,.3c.2,.2,.2,.5,.2,.9Zm5.2,-.5c0,.4,-.2,.9,-.5,1.5l-.8,1.3l-.2,.1l.3,-1c.1,-.5,.2,-.8,.2,-1.1c0,-.4,-.1,-.7,-.3,-.9l.9,-1c.2,.3,.4,.7,.4,1.1Zm-2.6,0c0,.4,-.2,.9,-.5,1.5l-.7,1.3l-.3,.1l.3,-1c.2,-.5,.2,-.8,.2,-1.1c0,-.4,-.1,-.7,-.3,-.9l.9,-1c.3,.3,.4,.7,.4,1.1Zm10.2,4.4l-.6,1.2c-.7,-1,-1.6,-2.1,-2.8,-3.3c-.3,-.3,-.7,-.7,-1.1,-1.1c-.5,.5,-.7,1.1,-.6,1.8c0,.4,0,.8,.1,1.1h.8l-.5,1.1h-1.6l.2,-.6c-.1,-.3,-.1,-.5,-.1,-.7c0,-.6,.1,-1.1,.4,-1.6c.1,-.3,.4,-.8,.9,-1.5l-1.5,-1.2l.6,-.9c.7,.5,1.6,1.3,2.6,2.3c.3,.3,.7,.7,1.2,1.2c.3,-.4,.4,-.8,.4,-1.3c0,-.4,-.1,-.7,-.3,-1l1,-1.2c.3,.7,.4,1.1,.4,1.5c0,.4,-.2,.8,-.4,1.3c-.3,.4,-.5,.8,-.8,1.1c.6,.6,1.2,1.2,1.7,1.8Zm3.4,-3.1v3.4c-.3,.4,-.6,.7,-.9,1l-.1,-4.1c0,-.4,-.1,-.8,-.5,-1l-1.3,-.9l.8,-1l1.5,1.1c.3,.1,.4,.3,.5,.6c0,.2,0,.5,0,.9Zm6.1,-2l-.5,1.1h-.6v4.3c-.3,.2,-.6,.5,-.9,.9v-5.2h-3.4c.5,-.7,.9,-1.2,1.3,-1.8c.1,.3,.1,.4,.1,.5c.1,.1,.2,.2,.3,.2h2c.1,-.3,.4,-.5,.6,-.6v.6Z" class="g0_24"/>
<path d="M232.8,542.4h-2.9v-.2c.3,0,.4,-.1,.5,-.3c.1,-.1,.1,-.3,.1,-.7v-2.4c0,-.7,0,-1.2,-.2,-1.3c-.1,-.1,-.2,-.1,-.3,-.1c-.4,0,-.7,.3,-1.1,.8v3c0,.4,.1,.6,.1,.7c.1,.2,.3,.3,.6,.3v.2h-3v-.2c.3,0,.5,-.1,.6,-.4c0,-.1,.1,-.3,.1,-.6v-2.4c0,-.4,0,-.6,-.1,-.7c0,-.3,-.1,-.5,-.2,-.6c-.1,-.1,-.2,-.1,-.3,-.1c-.4,0,-.7,.3,-1.1,.8v3c0,.3,.1,.6,.1,.7c.1,.2,.3,.3,.6,.3v.2h-3v-.2c.3,0,.5,-.1,.6,-.2c0,-.1,.1,-.4,.1,-.8V538c0,-.3,-.1,-.6,-.1,-.7c-.1,-.1,-.3,-.3,-.6,-.3v-.2h2.3v.7c.6,-.6,1.2,-.9,1.8,-.9c.7,0,1.2,.4,1.4,1c.7,-.6,1.3,-1,1.9,-1c.7,0,1.2,.3,1.4,1c.1,.2,.1,.7,.1,1.3v2.3c0,.4,.1,.6,.1,.7c.1,.2,.2,.3,.5,.3Zm2.9,-7.4c0,.3,-.1,.5,-.3,.7c-.1,.1,-.4,.2,-.6,.2c-.3,0,-.5,-.1,-.7,-.2c-.1,-.2,-.2,-.4,-.2,-.7c0,-.2,.1,-.5,.2,-.6c.2,-.2,.4,-.3,.7,-.3c.2,0,.5,.1,.6,.2c.2,.2,.3,.4,.3,.7Zm.6,7.4h-3v-.2c.2,0,.4,-.1,.5,-.2c.1,-.1,.2,-.4,.2,-.7V538c0,-.4,-.1,-.6,-.1,-.7c-.1,-.2,-.3,-.3,-.6,-.3v-.2h2.3v4.5c0,.3,0,.5,.1,.6c.1,.2,.3,.3,.6,.3Zm6.2,-.8c-.4,.6,-.9,.9,-1.4,.9c-.6,0,-1,-.3,-1.1,-.9c-.7,.6,-1.3,.9,-1.8,.9c-.3,0,-.6,-.1,-.8,-.3c-.2,-.2,-.3,-.5,-.3,-.8c0,-.6,.3,-1.1,1.1,-1.6c.3,-.2,.9,-.5,1.8,-.9v-.6c0,-.3,0,-.5,0,-.6c0,-.2,-.1,-.4,-.3,-.5c-.1,-.1,-.3,-.1,-.4,-.1c-.3,0,-.5,.1,-.7,.2c-.1,0,-.1,.1,-.1,.2c0,.1,0,.2,.1,.3c.2,.2,.3,.4,.3,.5c0,.2,-.1,.4,-.3,.5c-.1,.2,-.3,.2,-.5,.2c-.3,0,-.5,0,-.6,-.2c-.2,-.1,-.3,-.3,-.3,-.5c0,-.4,.1,-.7,.4,-.9c.2,-.3,.5,-.4,.9,-.6c.4,-.1,.8,-.2,1.3,-.2c.4,0,.7,.1,1.1,.3c.3,.2,.6,.5,.7,.8c.1,.2,.1,.6,.1,1.2v2.2c0,.3,0,.5,.1,.6q.1,0,.2,0c.1,0,.2,-.1,.3,-.2Zm-2.5,-.5v-1.8c-.9,.5,-1.3,1,-1.3,1.5c0,.2,.1,.4,.2,.5c.1,.1,.2,.2,.4,.2c.2,0,.5,-.1,.7,-.4Zm6.7,.2c-.3,.8,-.8,1.2,-1.6,1.2c-.3,0,-.6,-.1,-.8,-.3c-.3,-.1,-.5,-.4,-.5,-.7c-.1,-.1,-.1,-.5,-.1,-1.1v-3H243v-.2c.9,-.7,1.7,-1.5,2.2,-2.5h.2v2.1h1.3v.6h-1.3v3.5c0,.4,.1,.7,.2,.8q.1,.1,.2,.1c.3,0,.5,-.2,.8,-.6Zm5.9,.3c-.4,.6,-.9,.9,-1.4,.9c-.6,0,-1,-.3,-1.1,-.9c-.7,.6,-1.3,.9,-1.8,.9c-.4,0,-.6,-.1,-.8,-.3c-.2,-.2,-.3,-.5,-.3,-.8c0,-.6,.3,-1.1,1.1,-1.6c.3,-.2,.9,-.5,1.8,-.9v-.6c0,-.3,0,-.5,0,-.6c0,-.2,-.1,-.4,-.3,-.5c-.1,-.1,-.3,-.1,-.4,-.1c-.3,0,-.5,.1,-.7,.2c-.1,0,-.1,.1,-.1,.2c0,.1,0,.2,.1,.3c.2,.2,.2,.4,.2,.5c0,.2,0,.4,-.2,.5c-.1,.2,-.3,.2,-.5,.2c-.3,0,-.5,0,-.6,-.2c-.2,-.1,-.3,-.3,-.3,-.5c0,-.4,.1,-.7,.4,-.9c.2,-.3,.5,-.4,.9,-.6c.4,-.1,.8,-.2,1.3,-.2c.4,0,.7,.1,1.1,.3c.3,.2,.6,.5,.7,.8c.1,.2,.1,.6,.1,1.2v2.2c0,.3,0,.5,.1,.6q.1,0,.2,0c.1,0,.2,-.1,.3,-.2Zm-2.5,-.5v-1.8c-.9,.5,-1.3,1,-1.3,1.5c0,.2,.1,.4,.2,.5c.1,.1,.2,.2,.4,.2c.2,0,.5,-.1,.7,-.4Zm5.4,-6.1c0,.3,-.1,.5,-.2,.7c-.2,.1,-.4,.2,-.7,.2c-.3,0,-.5,-.1,-.7,-.2c-.1,-.2,-.2,-.4,-.2,-.7c0,-.2,.1,-.5,.2,-.6c.2,-.2,.4,-.3,.7,-.3c.3,0,.5,.1,.7,.2c.1,.2,.2,.4,.2,.7Zm.6,7.4h-3v-.2c.2,0,.4,-.1,.5,-.2c.1,-.1,.2,-.4,.2,-.7V538c0,-.4,-.1,-.6,-.1,-.7c-.1,-.2,-.3,-.3,-.6,-.3v-.2h2.3v4.5c0,.3,.1,.5,.1,.6c.1,.2,.3,.3,.6,.3Zm4.6,-1.7c0,.4,-.1,.7,-.3,1c-.1,.3,-.3,.5,-.6,.6c-.3,.2,-.6,.3,-1,.3c-.2,0,-.6,-.1,-1,-.3q-.2,0,-.3,0c-.1,0,-.2,.1,-.3,.3H257l-.1,-2h.2c.1,.4,.3,.7,.6,1c.3,.3,.7,.5,1,.5c.2,0,.4,0,.5,-.1c.1,-.1,.2,-.3,.2,-.5c0,-.2,-.1,-.4,-.4,-.6c0,-.1,-.2,-.3,-.6,-.5c-.6,-.4,-1,-.7,-1.2,-1c-.3,-.3,-.4,-.7,-.4,-1.1c0,-.5,.2,-.9,.5,-1.2c.3,-.3,.7,-.5,1.3,-.5c.3,0,.6,.1,.8,.3q.2,0,.3,0c.1,0,.2,-.1,.4,-.3h.2l.1,2h-.2c-.4,-1,-1,-1.5,-1.6,-1.5c-.1,0,-.3,0,-.4,.1c-.1,.1,-.2,.3,-.2,.4c0,.1,.1,.2,.2,.3c.1,.2,.5,.5,1.1,.9c.5,.4,.9,.7,1.1,1c.2,.3,.3,.6,.3,.9Zm5.5,-3.3c0,.3,-.1,.4,-.2,.6c-.1,.2,-.2,.3,-.5,.3c-.1,0,-.3,-.1,-.4,-.2c-.1,-.1,-.3,-.2,-.4,-.3c0,0,-.1,0,-.1,0c-.2,0,-.3,0,-.4,.1c-.1,.2,-.3,.4,-.3,.6c-.2,.4,-.2,.8,-.2,1.3v1.6c0,.3,0,.4,0,.5c.1,.2,.3,.3,.7,.3v.2h-3v-.2c.3,0,.5,-.1,.5,-.4c.1,-.1,.1,-.3,.1,-.7V538c0,-.3,0,-.5,-.1,-.6c0,-.2,-.2,-.4,-.5,-.4v-.2h2.3v1.3c.6,-1,1.2,-1.5,1.8,-1.5c.5,0,.7,.3,.7,.8Zm6.2,4.2c-.4,.6,-.8,.9,-1.4,.9c-.6,0,-1,-.3,-1,-.9c-.7,.6,-1.3,.9,-1.9,.9c-.3,0,-.6,-.1,-.8,-.3c-.2,-.2,-.3,-.5,-.3,-.8c0,-.6,.4,-1.1,1.1,-1.6c.3,-.2,.9,-.5,1.9,-.9v-.6c0,-.3,-.1,-.5,-.1,-.6c0,-.2,-.1,-.4,-.3,-.5c-.1,-.1,-.3,-.1,-.4,-.1c-.3,0,-.5,.1,-.7,.2c-.1,0,-.1,.1,-.1,.2c0,.1,0,.2,.1,.3c.2,.2,.3,.4,.3,.5c0,.2,-.1,.4,-.3,.5c-.1,.2,-.3,.2,-.5,.2c-.3,0,-.5,0,-.6,-.2c-.2,-.1,-.3,-.3,-.3,-.5c0,-.4,.1,-.7,.4,-.9c.2,-.3,.5,-.4,.9,-.6c.4,-.1,.8,-.2,1.3,-.2c.4,0,.8,.1,1.1,.3c.4,.2,.6,.5,.8,.8c0,.2,0,.6,0,1.2v2.2c0,.3,.1,.5,.1,.6q.1,0,.2,0c.1,0,.2,-.1,.3,-.2Zm-2.4,-.5v-1.8c-.9,.5,-1.4,1,-1.4,1.5c0,.2,.1,.4,.2,.5c.1,.1,.3,.2,.4,.2c.2,0,.5,-.1,.8,-.4Zm7.7,-.2c-.6,1.1,-1.3,1.7,-2.3,1.7c-.8,0,-1.5,-.3,-1.9,-1c-.4,-.5,-.5,-1.1,-.5,-1.9c0,-.8,.2,-1.5,.6,-2.1c.5,-.6,1.1,-1,1.9,-1c.7,0,1.3,.3,1.7,.9c.3,.5,.4,1.2,.5,1.9h-3.1c0,.7,.2,1.3,.6,1.8c.3,.3,.6,.5,1,.5c.5,0,.9,-.3,1.3,-1ZM276.2,539c0,-.5,0,-.8,0,-1c-.1,-.4,-.2,-.7,-.4,-.9c-.1,-.1,-.2,-.1,-.4,-.1c-.2,0,-.3,.1,-.5,.3c-.2,.4,-.3,.9,-.3,1.5v.2Zm5.1,3.4h-3v-.2c.2,0,.4,-.1,.5,-.2c.1,-.1,.2,-.4,.2,-.7v-5.9c0,-.3,-.1,-.5,-.1,-.6c-.1,-.2,-.3,-.3,-.6,-.3v-.2h2.3v7c0,.3,.1,.5,.1,.6c.1,.2,.3,.3,.6,.3Zm11.4,-1c-.5,1.2,-1.2,2.1,-2.1,2.7c-.9,.6,-2,1,-3.2,1c-1.6,0,-2.8,-.5,-3.8,-1.5c-1,-1,-1.5,-2.3,-1.5,-3.8c0,-1.1,.2,-2,.7,-2.9c.5,-.9,1.2,-1.6,2.1,-2.1c.9,-.5,1.9,-.7,3,-.7c.8,0,1.5,.1,2.2,.5c.7,.3,1.3,.8,1.6,1.5c.3,.6,.5,1.3,.5,2c0,.8,-.1,1.5,-.5,2.2c-.3,.7,-.8,1.3,-1.4,1.6c-.5,.4,-1.1,.5,-1.7,.5c-.4,0,-.6,-.1,-.9,-.2c-.2,-.2,-.3,-.5,-.3,-.8c0,-.3,0,-.5,.1,-.9c-.3,.6,-.6,1,-.8,1.2c-.2,.2,-.5,.5,-.7,.6c-.2,.1,-.4,.1,-.6,.1c-.3,0,-.6,-.1,-.7,-.4c-.2,-.3,-.3,-.6,-.3,-.9c0,-1.4,.5,-2.5,1.5,-3.6c.3,-.3,.7,-.5,1,-.7c.2,-.1,.4,-.2,.6,-.2c.5,0,.8,.3,.9,1l.2,-.7l1.5,-.1l-1.1,3.8c-.2,.4,-.2,.7,-.2,.9c0,.1,0,.2,.1,.3c.1,.1,.2,.2,.4,.2c.4,0,.8,-.2,1.2,-.7c.4,-.3,.7,-.7,.9,-1.2c.3,-.5,.5,-1.2,.5,-1.8c0,-1.2,-.4,-2.1,-1.1,-2.8c-.7,-.7,-1.7,-1,-2.8,-1c-1,0,-1.9,.2,-2.7,.7c-.8,.4,-1.4,1.1,-1.9,2c-.5,.9,-.7,1.8,-.7,2.8c0,1.4,.4,2.5,1.3,3.4c.9,.9,2,1.3,3.4,1.3c1.1,0,2.1,-.3,3,-.8c.9,-.6,1.6,-1.5,1.9,-2.5Zm-4.6,-3.5c0,-.6,-.1,-.8,-.4,-.8c-.3,0,-.7,.4,-1.1,1.4c-.4,.9,-.6,1.7,-.6,2.3c0,.3,.1,.5,.3,.5c.3,0,.6,-.3,1,-.9c.6,-.9,.8,-1.7,.8,-2.5Zm10.6,5.3c0,.4,-.1,.7,-.4,1c-.2,.2,-.4,.5,-.8,.6c-.5,.2,-1.1,.3,-1.8,.3c-1.1,0,-1.9,-.2,-2.2,-.6c-.2,-.2,-.3,-.3,-.3,-.5c0,-.4,.3,-.7,1,-.9c-.6,-.2,-.8,-.6,-.8,-1.1c0,-.6,.4,-1.1,1.3,-1.4c-1,-.4,-1.5,-1,-1.5,-1.9c0,-.7,.2,-1.2,.7,-1.5c.5,-.4,1.1,-.6,1.7,-.6c.4,0,.8,.1,1.1,.3h1.9v.6h-1c.3,.4,.5,.8,.5,1.2c0,.8,-.4,1.4,-1.2,1.8c-.4,.1,-.7,.2,-1,.2h-.3c-.1,0,-.3,0,-.5,0c-.1,0,-.3,.1,-.4,.2c-.1,.1,-.2,.2,-.2,.4c0,.3,.2,.5,.7,.5h1c.9,0,1.4,.1,1.8,.3c.4,.2,.7,.6,.7,1.1Zm-2.2,-4.4c0,-1.2,-.3,-1.8,-.8,-1.8c-.5,0,-.8,.6,-.8,1.8c0,1,.2,1.6,.8,1.6c.5,0,.8,-.6,.8,-1.6Zm1.2,5c0,-.2,-.2,-.4,-.6,-.5c-.2,0,-.8,-.1,-1.8,-.1c-.4,0,-.6,.1,-.8,.2c-.2,.1,-.3,.2,-.3,.5c0,.5,.6,.8,1.7,.8c1.2,0,1.8,-.3,1.8,-.9Zm11.2,-1.4H306v-.2c.2,0,.4,-.1,.5,-.3c.1,-.1,.1,-.3,.1,-.7v-2.4c0,-.7,-.1,-1.2,-.2,-1.3c-.1,-.1,-.2,-.1,-.3,-.1c-.4,0,-.7,.3,-1.1,.8v3c0,.4,0,.6,.1,.7c.1,.2,.3,.3,.5,.3v.2h-2.9v-.2c.3,0,.5,-.1,.6,-.4c0,-.1,0,-.3,0,-.6v-2.4c0,-.4,0,-.6,0,-.7c0,-.3,-.1,-.5,-.2,-.6c-.1,-.1,-.2,-.1,-.3,-.1c-.4,0,-.7,.3,-1.1,.8v3c0,.3,0,.6,.1,.7c.1,.2,.2,.3,.5,.3v.2h-2.9v-.2c.2,0,.4,-.1,.5,-.2c.1,-.1,.1,-.4,.1,-.8V538c0,-.3,0,-.6,0,-.7c-.1,-.1,-.3,-.3,-.6,-.3v-.2h2.3v.7c.6,-.6,1.1,-.9,1.7,-.9c.8,0,1.2,.4,1.5,1c.6,-.6,1.2,-1,1.9,-1c.7,0,1.2,.3,1.4,1c.1,.2,.1,.7,.1,1.3v2.3c0,.4,0,.6,.1,.7c0,.2,.2,.3,.5,.3Zm6.1,-.8c-.3,.6,-.8,.9,-1.3,.9c-.7,0,-1,-.3,-1.1,-.9c-.7,.6,-1.3,.9,-1.9,.9c-.3,0,-.5,-.1,-.8,-.3c-.2,-.2,-.3,-.5,-.3,-.8c0,-.6,.4,-1.1,1.1,-1.6c.3,-.2,1,-.5,1.9,-.9v-.6c0,-.3,0,-.5,0,-.6c-.1,-.2,-.2,-.4,-.3,-.5c-.2,-.1,-.3,-.1,-.5,-.1c-.2,0,-.4,.1,-.6,.2c-.1,0,-.2,.1,-.2,.2c0,.1,.1,.2,.2,.3c.2,.2,.2,.4,.2,.5c0,.2,0,.4,-.2,.5c-.2,.2,-.3,.2,-.6,.2c-.2,0,-.4,0,-.6,-.2c-.2,-.1,-.3,-.3,-.3,-.5c0,-.4,.2,-.7,.5,-.9c.2,-.3,.5,-.4,.9,-.6c.4,-.1,.8,-.2,1.2,-.2c.4,0,.8,.1,1.1,.3c.4,.2,.7,.5,.8,.8c0,.2,.1,.6,.1,1.2v2.2c0,.3,0,.5,.1,.6c0,0,.1,0,.1,0c.2,0,.3,-.1,.4,-.2Zm-2.4,-.5v-1.8c-.9,.5,-1.3,1,-1.3,1.5c0,.2,.1,.4,.2,.5c.1,.1,.2,.2,.4,.2c.2,0,.4,-.1,.7,-.4Zm5.2,-6.1c0,.3,0,.5,-.2,.7c-.2,.1,-.4,.2,-.7,.2c-.2,0,-.5,-.1,-.6,-.2c-.2,-.2,-.3,-.4,-.3,-.7c0,-.2,.1,-.5,.3,-.6c.1,-.2,.4,-.3,.6,-.3c.3,0,.5,.1,.7,.2c.2,.2,.2,.4,.2,.7Zm.6,7.4h-3v-.2c.3,0,.4,-.1,.6,-.2c0,-.1,.1,-.4,.1,-.7V538c0,-.4,0,-.6,-.1,-.7c-.1,-.2,-.3,-.3,-.6,-.3v-.2h2.4v4.5c0,.3,0,.5,0,.6c.1,.2,.3,.3,.6,.3Zm3.5,0h-3v-.2c.2,0,.4,-.1,.5,-.2c.1,-.1,.2,-.4,.2,-.7v-5.9c0,-.3,-.1,-.5,-.1,-.6c-.1,-.2,-.3,-.3,-.6,-.3v-.2h2.4v7c0,.3,0,.5,.1,.6c0,.2,.2,.3,.5,.3Zm3,-.9l-1.1,1.2l-1.4,-1.1l1.2,-1.3Zm5.7,-.4c-.5,1,-1.2,1.5,-2.2,1.5c-.8,0,-1.4,-.3,-1.9,-.9c-.4,-.6,-.6,-1.2,-.6,-2c0,-.8,.2,-1.4,.6,-2c.5,-.7,1.2,-1.1,2.1,-1.1c.4,0,.9,.1,1.2,.4c.5,.2,.7,.6,.7,1c0,.5,-.3,.8,-.8,.8c-.5,0,-.8,-.4,-.9,-1.1c0,-.4,-.2,-.7,-.5,-.7c-.2,0,-.3,.2,-.4,.4c-.3,.3,-.4,.7,-.4,1.4c0,.5,.1,.9,.3,1.4c.1,.5,.4,.9,.7,1.2c.2,.1,.5,.2,.8,.2c.3,0,.7,-.2,1.2,-.6Zm5.9,-1.5c0,.8,-.2,1.5,-.6,2c-.5,.7,-1.2,1,-2,1c-.8,0,-1.5,-.3,-2,-.9c-.4,-.6,-.7,-1.2,-.7,-2.1c0,-.8,.3,-1.5,.7,-2c.5,-.7,1.1,-1,2,-1c.5,0,.9,.2,1.3,.4c.4,.3,.8,.6,1,1.1c.2,.4,.3,1,.3,1.5Zm-1.8,-.5c0,-1,-.1,-1.7,-.4,-1.9c-.1,-.1,-.3,-.2,-.4,-.2c-.5,0,-.8,.4,-.8,1.2c-.1,.5,-.1,1.1,-.1,1.9c0,.4,0,.8,.1,1.2c.1,.6,.3,.9,.8,.9c.4,0,.6,-.3,.7,-.8c.1,-.3,.1,-1.1,.1,-2.3Zm12.3,3.3h-2.9v-.2c.2,0,.4,-.1,.5,-.3c0,-.1,.1,-.3,.1,-.7v-2.4c0,-.7,-.1,-1.2,-.3,-1.3c-.1,-.1,-.2,-.1,-.3,-.1c-.3,0,-.7,.3,-1,.8v3c0,.4,0,.6,.1,.7c.1,.2,.2,.3,.5,.3v.2h-2.9v-.2c.3,0,.5,-.1,.5,-.4c.1,-.1,.1,-.3,.1,-.6v-2.4c0,-.4,0,-.6,0,-.7c-.1,-.3,-.2,-.5,-.3,-.6c-.1,-.1,-.2,-.1,-.3,-.1c-.3,0,-.7,.3,-1,.8v3c0,.3,0,.6,0,.7c.1,.2,.3,.3,.6,.3v.2h-2.9v-.2c.2,0,.4,-.1,.5,-.2c.1,-.1,.1,-.4,.1,-.8V538c0,-.3,0,-.6,-.1,-.7c0,-.1,-.2,-.3,-.5,-.3v-.2h2.3v.7c.5,-.6,1.1,-.9,1.7,-.9c.7,0,1.2,.4,1.5,1c.6,-.6,1.2,-1,1.8,-1c.7,0,1.2,.3,1.4,1c.1,.2,.2,.7,.2,1.3v2.3c0,.4,0,.6,0,.7c.1,.2,.3,.3,.6,.3Z" class="g0_24"/>
</g>
<path fill-rule="evenodd" d="M54.9,494.8h.7v.8h-.7v-.8Z" class="g1_24"/>
<path fill-rule="evenodd" d="M54.9,494.8h.7v.8h-.7v-.8Z" class="g1_24"/>
<path fill-rule="evenodd" d="M55.6,494.8H385.4v.8H55.6v-.8Z" class="g1_24"/>
<path fill-rule="evenodd" d="M385.4,494.8h.7v.8h-.7v-.8Z" class="g1_24"/>
<path fill-rule="evenodd" d="M385.4,494.8h.7v.8h-.7v-.8Z" class="g1_24"/>
<path fill-rule="evenodd" d="M54.9,495.6h.7v49.9h-.7V495.6Z" class="g1_24"/>
<path fill-rule="evenodd" d="M54.9,545.5h.7v.8h-.7v-.8Z" class="g1_24"/>
<path fill-rule="evenodd" d="M54.9,545.5h.7v.8h-.7v-.8Z" class="g1_24"/>
<path fill-rule="evenodd" d="M55.6,545.5H385.4v.8H55.6v-.8Z" class="g1_24"/>
<path fill-rule="evenodd" d="M385.4,495.6h.7v49.9h-.7V495.6Z" class="g1_24"/>
<path fill-rule="evenodd" d="M385.4,545.5h.7v.8h-.7v-.8Z" class="g1_24"/>
<path fill-rule="evenodd" d="M385.4,545.5h.7v.8h-.7v-.8Z" class="g1_24"/>
<path fill-rule="evenodd" d="M36.8,36.8h.7v.7h-.7v-.7Z" class="g2_24"/>
<path fill-rule="evenodd" d="M36.8,36.8h.7v.7h-.7v-.7Z" class="g2_24"/>
<path fill-rule="evenodd" d="M37.5,36.8H404.2v.7H37.5v-.7Z" class="g2_24"/>
<path fill-rule="evenodd" d="M404.2,36.8h.7v.7h-.7v-.7Z" class="g2_24"/>
<path fill-rule="evenodd" d="M404.2,36.8h.7v.7h-.7v-.7Z" class="g2_24"/>
<path fill-rule="evenodd" d="M36.8,37.5h.7V624.2h-.7V37.5Z" class="g2_24"/>
<path fill-rule="evenodd" d="M404.2,37.5h.7V624.2h-.7V37.5Z" class="g2_24"/>
<path fill-rule="evenodd" d="M36.8,624.2h.7v.8h-.7v-.8Z" class="g2_24"/>
<path fill-rule="evenodd" d="M36.8,624.2h.7v.8h-.7v-.8Z" class="g2_24"/>
<path fill-rule="evenodd" d="M37.5,624.2H404.2v.8H37.5v-.8Z" class="g2_24"/>
<path fill-rule="evenodd" d="M404.2,624.2h.7v.8h-.7v-.8Z" class="g2_24"/>
<path fill-rule="evenodd" d="M404.2,624.2h.7v.8h-.7v-.8Z" class="g2_24"/>
</svg>